<?xml version="1.0" standalone="no"?>
<!DOCTYPE svg PUBLIC "-//W3C//DTD SVG 20010904//EN"
 "http://www.w3.org/TR/2001/REC-SVG-20010904/DTD/svg10.dtd">
<svg version="1.0" xmlns="http://www.w3.org/2000/svg"
 width="512.000000pt" height="512.000000pt" viewBox="0 0 512.000000 512.000000"
 preserveAspectRatio="xMidYMid meet">

<g transform="translate(0.000000,512.000000) scale(0.100000,-0.100000)"
fill="#000000" stroke="none">
<path d="M3685 5030 c-189 -30 -417 -130 -567 -250 -347 -277 -508 -743 -402
-1163 l15 -63 -134 -225 c-74 -124 -142 -240 -152 -258 -21 -41 -12 -86 22
-108 23 -15 43 -15 305 11 l280 28 27 -21 c334 -269 684 -348 1089 -245 426
107 769 484 847 928 51 294 -15 596 -185 852 -72 108 -244 275 -353 342 -194
121 -365 172 -587 177 -80 2 -172 0 -205 -5z m439 -184 c630 -189 930 -855
646 -1432 -172 -348 -526 -564 -924 -564 -130 0 -208 13 -328 54 -123 42 -224
100 -328 188 -96 82 -73 79 -344 48 -98 -11 -181 -18 -183 -16 -3 2 48 93 112
201 l117 198 -25 106 c-34 138 -41 235 -27 346 55 451 372 799 810 891 44 9
117 12 225 10 139 -3 172 -7 249 -30z"/>
<path d="M4235 4498 c-11 -6 -158 -151 -327 -322 l-306 -311 -109 106 c-125
123 -140 133 -180 118 -33 -12 -247 -221 -269 -261 -8 -15 -12 -38 -9 -51 4
-13 124 -142 269 -285 272 -272 283 -280 334 -253 9 5 223 218 475 474 379
386 457 470 457 493 0 22 -27 54 -132 160 -134 134 -165 154 -203 132z m-15
-457 c-87 -91 -262 -269 -389 -396 l-231 -230 -190 190 -190 190 57 57 57 58
117 -115 c102 -101 120 -115 150 -115 32 0 57 23 348 320 l314 321 58 -57 58
-57 -159 -166z"/>
<path d="M1370 4611 c-88 -28 -140 -60 -201 -120 -66 -66 -103 -134 -125 -228
-50 -215 80 -479 285 -581 71 -35 80 -37 171 -37 88 0 101 3 164 34 130 64
241 206 280 357 32 123 13 269 -47 368 -35 56 -121 139 -176 169 -103 57 -246
72 -351 38z m256 -166 c126 -56 200 -197 176 -335 -31 -174 -165 -313 -302
-313 -77 0 -136 30 -204 103 -68 74 -98 147 -104 252 -4 67 -1 84 23 135 75
164 248 231 411 158z"/>
<path d="M1068 3354 c-74 -17 -179 -71 -245 -123 -66 -53 -145 -157 -180 -238
l-27 -63 -116 0 c-138 0 -172 -13 -207 -80 -22 -41 -23 -54 -23 -241 l0 -197
-33 -11 c-48 -16 -107 -69 -128 -115 -25 -55 -25 -145 0 -195 25 -49 90 -107
130 -116 l31 -7 0 -86 c0 -97 20 -152 68 -187 25 -19 45 -20 329 -23 l302 -3
3 -682 3 -682 27 -51 c35 -66 106 -128 170 -150 100 -33 234 -7 305 58 l22 20
42 -35 c51 -44 115 -67 189 -67 119 0 219 64 271 175 l29 60 0 706 0 706 46
13 c112 32 222 137 267 256 21 57 22 71 22 454 0 347 -2 403 -18 459 -62 225
-226 389 -443 445 -84 22 -747 22 -836 0z m824 -152 c114 -42 206 -120 255
-217 51 -99 53 -124 53 -529 0 -362 -1 -383 -21 -426 -25 -55 -62 -96 -111
-121 l-38 -19 0 423 c0 415 0 424 -20 442 -27 24 -83 24 -109 1 -21 -19 -21
-27 -23 -1220 -3 -1157 -4 -1202 -22 -1229 -65 -96 -187 -96 -252 0 -18 27
-19 66 -24 808 -3 429 -6 781 -8 783 -1 2 -17 9 -36 17 -40 17 -90 5 -106 -25
-6 -12 -10 -302 -10 -778 l0 -759 -22 -33 c-37 -54 -73 -75 -128 -75 -56 0
-94 23 -125 76 -19 33 -20 52 -20 689 l0 655 49 7 c58 8 92 31 117 78 18 32
19 66 19 484 l0 450 -123 123 -123 123 -142 0 -142 0 24 48 c62 121 184 210
331 242 22 5 189 8 370 6 309 -2 334 -4 387 -24z m-814 -505 l82 -83 -2 -394
-3 -395 -362 -3 -363 -2 0 74 0 74 36 7 c24 4 52 22 83 53 79 79 92 186 34
280 -22 37 -42 53 -91 77 l-61 30 -1 183 0 182 283 0 282 0 83 -83z m-654
-447 c40 -15 51 -77 19 -112 -24 -27 -155 -26 -183 2 -27 27 -25 66 5 95 20
21 34 25 79 25 30 0 66 -4 80 -10z"/>
<path d="M2806 2549 l-26 -20 0 -279 0 -279 26 -20 c25 -20 39 -21 289 -21
250 0 264 1 289 21 l26 20 0 279 0 279 -26 20 c-25 20 -39 21 -289 21 -250 0
-264 -1 -289 -21z m454 -299 l0 -160 -165 0 -165 0 0 160 0 160 165 0 165 0 0
-160z"/>
<path d="M4185 2340 l-200 -200 -77 77 c-63 63 -82 76 -108 76 -41 0 -73 -32
-73 -73 0 -27 17 -49 114 -146 102 -102 117 -114 149 -114 32 0 53 18 272 238
256 255 260 261 217 316 -15 19 -29 26 -57 26 -33 0 -50 -14 -237 -200z"/>
<path d="M2800 1700 c-19 -19 -20 -33 -20 -295 0 -262 1 -276 20 -295 19 -19
33 -20 295 -20 262 0 276 1 295 20 19 19 20 33 20 295 0 262 -1 276 -20 295
-19 19 -33 20 -295 20 -262 0 -276 -1 -295 -20z m460 -295 l0 -165 -165 0
-165 0 0 165 0 165 165 0 165 0 0 -165z"/>
<path d="M4193 1498 l-203 -202 -79 77 c-63 62 -85 77 -109 77 -41 0 -86 -52
-77 -89 3 -15 55 -75 119 -138 92 -93 118 -113 142 -113 25 0 65 36 272 243
249 250 261 266 229 308 -15 20 -51 39 -73 39 -10 0 -109 -91 -221 -202z"/>
<path d="M2830 873 c-50 -19 -50 -17 -50 -314 l0 -278 26 -20 c25 -20 39 -21
289 -21 250 0 264 1 289 21 l26 20 0 278 c0 270 -1 278 -21 297 -19 18 -41 19
-283 21 -143 1 -268 -1 -276 -4z m430 -313 l0 -160 -165 0 -165 0 0 160 0 160
165 0 165 0 0 -160z"/>
<path d="M3843 858 c-26 -12 -47 -59 -39 -85 3 -10 49 -61 101 -113 l95 -94
-100 -102 c-108 -109 -117 -129 -79 -178 15 -19 29 -26 56 -26 32 0 47 11 134
97 l99 97 99 -97 c86 -85 102 -97 133 -97 42 0 78 34 78 75 0 22 -21 49 -100
129 l-99 101 99 95 c88 83 100 99 100 128 0 41 -38 82 -76 82 -21 0 -50 -23
-127 -99 l-101 -99 -108 99 c-59 54 -115 99 -125 98 -10 0 -28 -5 -40 -11z"/>
</g>
</svg>
