<?xml version="1.0" standalone="no"?>
<!DOCTYPE svg PUBLIC "-//W3C//DTD SVG 20010904//EN"
 "http://www.w3.org/TR/2001/REC-SVG-20010904/DTD/svg10.dtd">
<svg version="1.0" xmlns="http://www.w3.org/2000/svg"
 width="256.000000pt" height="256.000000pt" viewBox="0 0 256.000000 256.000000"
 preserveAspectRatio="xMidYMid meet">

<g transform="translate(0.000000,256.000000) scale(0.100000,-0.100000)"
fill="#000000" stroke="none">
<path d="M485 2461 c-50 -22 -99 -70 -128 -125 -22 -41 -22 -45 -22 -501 0
-453 0 -461 22 -500 44 -83 138 -144 219 -145 l41 0 5 -74 c6 -92 40 -167 103
-225 47 -44 47 -45 -5 -56 -60 -13 -153 -60 -202 -104 -29 -26 -60 -67 -80
-109 l-33 -66 -3 -232 c-4 -226 -3 -233 17 -244 15 -7 160 -10 486 -8 401 3
467 5 475 18 13 20 12 349 0 429 -26 156 -137 271 -305 313 -27 7 -52 13 -53
14 -2 1 15 19 37 39 59 54 101 145 106 231 l4 69 125 3 126 3 2 -178 c3 -169
4 -178 23 -181 14 -2 70 48 200 178 l180 180 100 0 c79 0 110 5 145 21 55 25
105 71 133 124 22 39 22 47 22 500 0 456 0 460 -22 501 -29 55 -78 103 -128
125 -38 17 -85 19 -795 19 -710 0 -757 -2 -795 -19z m1602 -77 c21 -16 48 -50
61 -75 l23 -44 -3 -442 -3 -441 -30 -43 c-16 -23 -50 -53 -74 -66 -38 -20 -59
-23 -149 -23 l-104 0 -164 -156 -164 -156 0 144 c0 99 -4 148 -12 156 -8 8
-59 12 -165 12 l-153 0 -19 38 c-23 44 -62 82 -111 108 -27 14 -57 19 -125 19
-81 0 -95 -3 -143 -29 -47 -26 -112 -100 -112 -128 0 -4 -22 -8 -48 -8 -64 0
-128 34 -167 89 l-30 43 -3 436 c-3 479 -2 490 56 545 63 60 16 57 844 55
l756 -3 39 -31z m-1074 -1053 c101 -62 124 -237 47 -353 -40 -60 -90 -90 -154
-96 -117 -10 -212 90 -224 234 -8 109 33 191 118 229 51 23 166 15 213 -14z
m32 -553 c120 -26 224 -107 261 -204 16 -42 19 -76 19 -244 l0 -195 -90 0 -90
0 -3 150 c-3 155 -8 173 -44 154 -16 -9 -18 -25 -18 -160 l0 -149 -187 2 -188
3 -3 152 c-2 121 -5 152 -17 157 -8 3 -21 -2 -30 -10 -12 -12 -15 -44 -15
-160 l0 -145 -87 3 -88 3 -3 175 c-4 198 5 257 48 322 89 135 312 196 535 146z"/>
<path d="M1716 2203 l-79 -66 -34 41 c-37 44 -53 51 -72 28 -15 -18 71 -136
100 -136 31 0 208 150 208 178 2 40 -39 26 -123 -45z"/>
<path d="M1027 2113 c-13 -12 -7 -37 15 -60 l22 -23 -23 -31 c-39 -52 -2 -82
46 -37 l23 21 23 -21 c48 -46 89 -12 44 36 l-26 27 25 29 c46 53 6 91 -45 42
l-27 -26 -24 25 c-23 25 -41 31 -53 18z"/>
<path d="M1512 1980 c-50 -16 -97 -32 -102 -35 -19 -11 -10 -41 20 -70 37 -36
28 -49 -48 -71 -45 -13 -84 -16 -192 -11 -227 9 -335 -14 -428 -90 -30 -25
-42 -42 -40 -57 5 -32 36 -31 72 2 36 34 96 66 146 77 19 5 127 9 240 9 l206
1 64 32 65 32 30 -29 c33 -32 50 -37 61 -18 13 21 62 232 57 245 -7 19 -48 14
-151 -17z m66 -108 l-13 -43 -39 40 -39 40 49 14 c57 17 60 12 42 -51z"/>
<path d="M1062 1610 c-110 -67 -30 -241 93 -200 48 16 75 53 75 104 0 48 -19
80 -60 101 -39 20 -69 19 -108 -5z m92 -56 c22 -22 20 -57 -5 -80 -19 -17 -23
-17 -47 -3 -33 18 -40 54 -16 80 21 23 47 24 68 3z"/>
</g>
</svg>
