<?xml version="1.0" standalone="no"?>
<!DOCTYPE svg PUBLIC "-//W3C//DTD SVG 20010904//EN"
 "http://www.w3.org/TR/2001/REC-SVG-20010904/DTD/svg10.dtd">
<svg version="1.0" xmlns="http://www.w3.org/2000/svg"
 width="512.000000pt" height="512.000000pt" viewBox="0 0 512.000000 512.000000"
 preserveAspectRatio="xMidYMid meet">

<g transform="translate(0.000000,512.000000) scale(0.100000,-0.100000)"
fill="#000000" stroke="none">
<path d="M440 5093 c-82 -28 -148 -89 -188 -173 -16 -32 -17 -203 -17 -2360
l0 -2325 24 -47 c30 -61 88 -119 149 -149 l47 -24 1685 0 1685 0 50 27 c64 34
118 90 147 153 23 49 23 58 26 436 l3 385 75 18 c271 63 529 268 656 521 158
314 137 696 -55 994 -131 201 -356 363 -592 424 l-85 22 0 640 0 640 -418 417
-417 418 -1365 0 c-1211 -1 -1370 -3 -1410 -17z m2700 -371 c0 -316 4 -340 72
-417 22 -25 64 -58 92 -73 l51 -27 293 -3 292 -3 0 -597 0 -597 -91 -3 c-99
-3 -197 -21 -284 -51 l-55 -19 0 261 c0 150 -5 278 -10 299 -16 57 -69 119
-129 150 l-53 28 -1177 0 -1176 0 -50 -24 c-60 -28 -97 -66 -124 -126 -20 -44
-21 -63 -21 -610 l0 -565 24 -51 c27 -58 94 -120 145 -134 23 -6 392 -10 992
-10 l957 0 5 -162 c5 -191 24 -272 92 -415 98 -202 255 -362 455 -463 127 -64
246 -95 405 -106 l96 -7 -3 -378 -3 -377 -31 -38 c-16 -21 -43 -47 -58 -58
l-27 -21 -1678 0 -1677 0 -36 24 c-19 13 -46 40 -59 59 l-24 36 0 2316 0 2316
27 41 c15 23 44 49 70 62 l43 21 1328 0 1327 0 0 -278z m417 -104 c167 -167
303 -306 303 -310 0 -5 -96 -8 -213 -8 -252 0 -295 8 -350 69 -20 22 -40 57
-46 78 -12 43 -15 473 -4 473 5 0 144 -136 310 -302z m-229 -1071 c18 -10 42
-32 52 -50 19 -30 20 -52 20 -324 l0 -291 -72 -49 c-178 -118 -335 -326 -394
-524 l-18 -59 -972 2 c-965 3 -973 3 -1000 24 -15 11 -37 33 -48 48 -20 27
-21 40 -24 539 -2 282 0 535 3 563 7 63 43 109 100 129 34 12 218 14 1180 12
1076 -2 1142 -3 1173 -20z m783 -675 c150 -40 273 -109 392 -222 182 -171 277
-393 277 -646 0 -235 -79 -434 -239 -606 -192 -206 -425 -300 -704 -285 -331
18 -613 207 -756 508 -257 536 71 1161 666 1269 77 14 278 4 364 -18z"/>
<path d="M794 4279 c-17 -19 -17 -23 -3 -47 l15 -27 814 -3 c746 -2 815 -1
832 14 22 21 23 47 2 68 -14 14 -103 16 -828 16 -809 0 -813 0 -832 -21z"/>
<path d="M852 714 c-26 -18 -29 -56 -6 -78 14 -14 145 -16 1293 -16 1225 0
1279 1 1294 18 23 26 21 58 -5 76 -20 14 -159 16 -1288 16 -1129 0 -1268 -2
-1288 -16z"/>
<path d="M3457 2432 c-10 -10 -17 -27 -17 -37 0 -11 78 -97 185 -205 l185
-185 -180 -180 c-100 -99 -183 -190 -187 -203 -7 -28 21 -62 51 -62 14 0 83
62 206 185 l185 185 185 -185 c189 -189 214 -207 248 -173 34 34 16 59 -173
248 l-185 185 185 185 c149 149 185 190 185 212 0 28 -23 48 -56 48 -10 0
-101 -83 -204 -185 l-185 -185 -185 185 c-190 190 -210 204 -243 167z"/>
</g>
</svg>
