<?xml version="1.0" standalone="no"?>
<!DOCTYPE svg PUBLIC "-//W3C//DTD SVG 20010904//EN"
 "http://www.w3.org/TR/2001/REC-SVG-20010904/DTD/svg10.dtd">
<svg version="1.0" xmlns="http://www.w3.org/2000/svg"
 width="512.000000pt" height="512.000000pt" viewBox="0 0 512.000000 512.000000"
 preserveAspectRatio="xMidYMid meet">

<g transform="translate(0.000000,512.000000) scale(0.100000,-0.100000)"
fill="#fca5a5" stroke="none">
<path d="M3327 4900 c-32 -12 -77 -32 -100 -47 -23 -14 -393 -375 -822 -803
-429 -427 -794 -786 -810 -798 -17 -11 -204 -93 -415 -181 -212 -89 -401 -169
-420 -179 -57 -28 -129 -107 -162 -178 -54 -115 -48 -258 14 -364 12 -19 183
-198 382 -398 l361 -362 -215 -218 c-118 -119 -344 -347 -502 -507 -309 -313
-310 -314 -293 -402 9 -49 69 -109 118 -118 88 -17 89 -16 402 293 160 158
388 384 507 502 l218 215 362 -361 c200 -199 379 -370 398 -382 101 -59 253
-67 362 -19 61 27 136 90 167 141 11 17 90 198 176 401 87 204 169 393 182
420 19 39 205 230 822 850 782 785 798 801 832 875 32 71 34 81 34 186 0 111
0 112 -40 188 -37 69 -84 120 -591 631 -541 544 -553 555 -630 592 -73 35 -87
38 -179 41 -81 2 -111 -2 -158 -18z"/>
</g>
</svg>
