<?xml version="1.0" encoding="UTF-8"?>
<!DOCTYPE svg PUBLIC "-//W3C//DTD SVG 1.1//EN" "http://www.w3.org/Graphics/SVG/1.1/DTD/svg11.dtd">
<svg xmlns="http://www.w3.org/2000/svg" version="1.1" width="512px" height="512px" style="shape-rendering:geometricPrecision; text-rendering:geometricPrecision; image-rendering:optimizeQuality; fill-rule:evenodd; clip-rule:evenodd" xmlns:xlink="http://www.w3.org/1999/xlink">
<g><path style="opacity:0.994" fill="#ffdbcb" d="M 249.5,-0.5 C 263.167,-0.5 276.833,-0.5 290.5,-0.5C 290.5,-0.166667 290.5,0.166667 290.5,0.5C 246.167,44.5 201.833,88.5 157.5,132.5C 139.675,128.872 121.675,127.705 103.5,129C 102.196,129.804 101.529,130.971 101.5,132.5C 104.93,146.461 109.93,159.794 116.5,172.5C 96.4199,194.082 75.7532,215.249 54.5,236C 53.9056,236.464 53.2389,236.631 52.5,236.5C 48.7801,225.806 47.6134,214.806 49,203.5C 58.2175,122.348 98.3841,62.1814 169.5,23C 194.89,10.3652 221.557,2.53188 249.5,-0.5 Z"/></g>
<g><path style="opacity:0.997" fill="#fed5c4" d="M 290.5,0.5 C 311.708,1.87169 332.042,6.53836 351.5,14.5C 335.419,29.0787 319.752,44.2454 304.5,60C 303.906,60.4643 303.239,60.631 302.5,60.5C 301.5,59.8333 300.5,59.1667 299.5,58.5C 294.731,53.2286 289.731,48.062 284.5,43C 279.833,41 275.167,41 270.5,43C 252.978,59.8601 239.811,79.6935 231,102.5C 224.989,119.055 220.823,136.055 218.5,153.5C 218.802,156.059 218.468,158.393 217.5,160.5C 206.008,151.752 193.341,145.086 179.5,140.5C 172.508,137.393 165.174,135.059 157.5,133.5C 157.5,133.167 157.5,132.833 157.5,132.5C 201.833,88.5 246.167,44.5 290.5,0.5 Z"/></g>
<g><path style="opacity:0.995" fill="#fed0be" d="M 351.5,14.5 C 369.142,20.4867 385.475,28.8201 400.5,39.5C 380.418,58.0798 360.751,77.2465 341.5,97C 340.906,97.4643 340.239,97.631 339.5,97.5C 326.833,85.5 314.5,73.1667 302.5,60.5C 303.239,60.631 303.906,60.4643 304.5,60C 319.752,44.2454 335.419,29.0787 351.5,14.5 Z"/></g>
<g><path style="opacity:0.996" fill="#fecbb8" d="M 400.5,39.5 C 415.586,48.2412 428.919,59.2412 440.5,72.5C 419.701,92.7983 399.035,113.298 378.5,134C 377.906,134.464 377.239,134.631 376.5,134.5C 363.833,122.5 351.5,110.167 339.5,97.5C 340.239,97.631 340.906,97.4643 341.5,97C 360.751,77.2465 380.418,58.0798 400.5,39.5 Z"/></g>
<g><path style="opacity:1" fill="#fb91ba" d="M 299.5,58.5 C 300.5,60.5 301.5,62.5 302.5,64.5C 300.873,66.6298 299.04,68.6298 297,70.5C 296.333,69.8333 295.667,69.1667 295,68.5C 293.786,70.0488 292.286,71.2155 290.5,72C 275.984,87.369 260.984,101.536 245.5,114.5C 244.654,119.886 243.487,125.22 242,130.5C 236.833,135 231.667,139.5 226.5,144C 223.189,146.795 220.523,149.961 218.5,153.5C 220.823,136.055 224.989,119.055 231,102.5C 239.811,79.6935 252.978,59.8601 270.5,43C 275.167,41 279.833,41 284.5,43C 289.731,48.062 294.731,53.2286 299.5,58.5 Z"/></g>
<g><path style="opacity:1" fill="#e383b3" d="M 302.5,64.5 C 308.754,71.9963 313.754,80.3297 317.5,89.5C 313.828,92.9957 309.828,95.9957 305.5,98.5C 304.826,95.4741 303.993,92.4741 303,89.5C 302.577,88.0439 301.744,87.5439 300.5,88C 284.145,102.022 268.812,117.022 254.5,133C 246.587,137.332 241.42,143.832 239,152.5C 231.962,159.042 224.795,165.375 217.5,171.5C 217.5,169.167 217.5,166.833 217.5,164.5C 217.5,163.167 217.5,161.833 217.5,160.5C 218.468,158.393 218.802,156.059 218.5,153.5C 220.523,149.961 223.189,146.795 226.5,144C 231.667,139.5 236.833,135 242,130.5C 243.487,125.22 244.654,119.886 245.5,114.5C 260.984,101.536 275.984,87.369 290.5,72C 292.286,71.2155 293.786,70.0488 295,68.5C 295.667,69.1667 296.333,69.8333 297,70.5C 299.04,68.6298 300.873,66.6298 302.5,64.5 Z"/></g>
<g><path style="opacity:0.992" fill="#fec5b1" d="M 440.5,72.5 C 468.804,101.091 487.804,135.091 497.5,174.5C 482.171,160.837 467.504,146.504 453.5,131.5C 452.942,130.21 451.942,129.377 450.5,129C 444.833,128.833 439.167,128.667 433.5,128.5C 425.6,128.282 417.934,128.949 410.5,130.5C 399.835,131.945 389.501,134.612 379.5,138.5C 378.5,137.167 377.5,135.833 376.5,134.5C 377.239,134.631 377.906,134.464 378.5,134C 399.035,113.298 419.701,92.7983 440.5,72.5 Z"/></g>
<g><path style="opacity:1" fill="#cf77ad" d="M 305.5,98.5 C 304.761,98.369 304.094,98.5357 303.5,99C 299.797,102.367 296.464,106.034 293.5,110C 290.567,111.271 287.901,112.938 285.5,115C 271.333,130.5 256.5,145.333 241,159.5C 240.164,163.373 239.331,167.207 238.5,171C 232,176.833 225.5,182.667 219,188.5C 218.809,186.292 218.309,184.292 217.5,182.5C 217.5,182.167 217.5,181.833 217.5,181.5C 217.5,178.167 217.5,174.833 217.5,171.5C 224.795,165.375 231.962,159.042 239,152.5C 241.42,143.832 246.587,137.332 254.5,133C 268.812,117.022 284.145,102.022 300.5,88C 301.744,87.5439 302.577,88.0439 303,89.5C 303.993,92.4741 304.826,95.4741 305.5,98.5 Z"/></g>
<g><path style="opacity:1" fill="#c672ab" d="M 317.5,89.5 C 321.956,98.0915 325.622,107.091 328.5,116.5C 326.495,115.876 324.828,116.71 323.5,119C 322.167,119.333 320.833,119.667 319.5,120C 317.317,122.35 314.984,124.517 312.5,126.5C 311.05,125.15 310.383,123.484 310.5,121.5C 310.11,118.161 309.61,114.827 309,111.5C 308.163,109.993 306.996,109.493 305.5,110C 297.912,118.921 289.579,127.255 280.5,135C 266.445,147.05 252.945,159.883 240,173.5C 239.667,178.833 239.333,184.167 239,189.5C 233.031,194.467 227.365,199.801 222,205.5C 221.617,204.944 221.117,204.611 220.5,204.5C 220.167,202.5 219.833,200.5 219.5,198.5C 218.512,193.211 217.845,187.878 217.5,182.5C 218.309,184.292 218.809,186.292 219,188.5C 225.5,182.667 232,176.833 238.5,171C 239.331,167.207 240.164,163.373 241,159.5C 256.5,145.333 271.333,130.5 285.5,115C 287.901,112.938 290.567,111.271 293.5,110C 296.464,106.034 299.797,102.367 303.5,99C 304.094,98.5357 304.761,98.369 305.5,98.5C 309.828,95.9957 313.828,92.9957 317.5,89.5 Z"/></g>
<g><path style="opacity:1" fill="#b468a5" d="M 310.5,121.5 C 303.315,128.185 296.315,135.019 289.5,142C 286.966,142.516 284.8,143.683 283,145.5C 281.493,144.465 279.993,144.632 278.5,146C 277.718,148.74 277.218,151.574 277,154.5C 275.287,155.878 273.953,157.545 273,159.5C 262.333,169.5 251.667,179.5 241,189.5C 240.539,194.184 240.705,198.851 241.5,203.5C 242.386,211.125 244.053,218.458 246.5,225.5C 247.68,230.555 249.013,235.555 250.5,240.5C 246.957,238.562 243.29,236.895 239.5,235.5C 236.48,233.323 233.147,231.657 229.5,230.5C 226.102,221.972 223.102,213.306 220.5,204.5C 221.117,204.611 221.617,204.944 222,205.5C 227.365,199.801 233.031,194.467 239,189.5C 239.333,184.167 239.667,178.833 240,173.5C 252.945,159.883 266.445,147.05 280.5,135C 289.579,127.255 297.912,118.921 305.5,110C 306.996,109.493 308.163,109.993 309,111.5C 309.61,114.827 310.11,118.161 310.5,121.5 Z"/></g>
<g><path style="opacity:1" fill="#e89e89" d="M 299.5,58.5 C 300.5,59.1667 301.5,59.8333 302.5,60.5C 314.5,73.1667 326.833,85.5 339.5,97.5C 351.5,110.167 363.833,122.5 376.5,134.5C 377.5,135.833 378.5,137.167 379.5,138.5C 377.597,138.796 375.93,139.463 374.5,140.5C 360.917,145.623 348.25,152.289 336.5,160.5C 336.605,156.452 336.272,152.452 335.5,148.5C 333.993,137.648 331.66,126.981 328.5,116.5C 325.622,107.091 321.956,98.0915 317.5,89.5C 313.754,80.3297 308.754,71.9963 302.5,64.5C 301.5,62.5 300.5,60.5 299.5,58.5 Z"/></g>
<g><path style="opacity:1" fill="#f08bb8" d="M 157.5,132.5 C 157.5,132.833 157.5,133.167 157.5,133.5C 156.504,133.414 155.671,133.748 155,134.5C 145.807,152.886 136.64,171.22 127.5,189.5C 123.439,184.103 119.773,178.436 116.5,172.5C 109.93,159.794 104.93,146.461 101.5,132.5C 101.529,130.971 102.196,129.804 103.5,129C 121.675,127.705 139.675,128.872 157.5,132.5 Z"/></g>
<g><path style="opacity:1" fill="#aa61a1" d="M 328.5,116.5 C 331.66,126.981 333.993,137.648 335.5,148.5C 330.482,152.009 325.316,155.342 320,158.5C 319.15,157.576 318.15,157.576 317,158.5C 316.055,158.095 315.388,157.428 315,156.5C 314.625,151.79 313.958,147.123 313,142.5C 310.78,145.021 308.28,147.188 305.5,149C 299,152.167 292.5,155.333 286,158.5C 285,158.167 284,157.833 283,157.5C 281.899,159.394 280.566,160.061 279,159.5C 277.791,162.707 276.791,166.041 276,169.5C 264.524,181.144 253.024,192.478 241.5,203.5C 240.705,198.851 240.539,194.184 241,189.5C 251.667,179.5 262.333,169.5 273,159.5C 273.953,157.545 275.287,155.878 277,154.5C 277.218,151.574 277.718,148.74 278.5,146C 279.993,144.632 281.493,144.465 283,145.5C 284.8,143.683 286.966,142.516 289.5,142C 296.315,135.019 303.315,128.185 310.5,121.5C 310.383,123.484 311.05,125.15 312.5,126.5C 314.984,124.517 317.317,122.35 319.5,120C 320.833,119.667 322.167,119.333 323.5,119C 324.828,116.71 326.495,115.876 328.5,116.5 Z"/></g>
<g><path style="opacity:1" fill="#f48db8" d="M 453.5,131.5 C 449.557,148.709 442.89,164.709 433.5,179.5C 426.112,163.057 418.446,146.724 410.5,130.5C 417.934,128.949 425.6,128.282 433.5,128.5C 439.167,128.667 444.833,128.833 450.5,129C 451.942,129.377 452.942,130.21 453.5,131.5 Z"/></g>
<g><path style="opacity:1" fill="#e182b4" d="M 157.5,133.5 C 165.174,135.059 172.508,137.393 179.5,140.5C 178.504,140.414 177.671,140.748 177,141.5C 173.333,148.833 169.667,156.167 166,163.5C 162.769,165.116 159.436,166.45 156,167.5C 156.934,169.471 158.434,171.304 160.5,173C 157.782,175.647 154.616,178.147 151,180.5C 150.667,180.167 150.333,179.833 150,179.5C 148.667,180.833 147.333,182.167 146,183.5C 145.667,183.167 145.333,182.833 145,182.5C 144.097,183.701 142.931,184.535 141.5,185C 142.833,185.667 142.833,186.333 141.5,187C 143.979,190.313 146.645,193.48 149.5,196.5C 147.153,201.193 144.82,205.86 142.5,210.5C 136.343,204.341 131.343,197.341 127.5,189.5C 136.64,171.22 145.807,152.886 155,134.5C 155.671,133.748 156.504,133.414 157.5,133.5 Z"/></g>
<g><path style="opacity:1" fill="#e383b5" d="M 410.5,130.5 C 418.446,146.724 426.112,163.057 433.5,179.5C 428.05,190.611 421.05,200.611 412.5,209.5C 409.941,205.388 407.608,201.054 405.5,196.5C 408.145,192.721 411.145,189.221 414.5,186C 407.499,182.996 400.999,179.162 395,174.5C 394.333,173.833 394.333,173.167 395,172.5C 396.833,171.333 398.333,169.833 399.5,168C 395.901,166.691 392.401,165.191 389,163.5C 385.333,156.167 381.667,148.833 378,141.5C 376.989,140.663 375.822,140.33 374.5,140.5C 375.93,139.463 377.597,138.796 379.5,138.5C 389.501,134.612 399.835,131.945 410.5,130.5 Z"/></g>
<g><path style="opacity:1" fill="#cb75ae" d="M 179.5,140.5 C 193.341,145.086 206.008,151.752 217.5,160.5C 217.5,161.833 217.5,163.167 217.5,164.5C 214.087,165.694 210.92,167.36 208,169.5C 205.385,170.311 202.552,170.311 199.5,169.5C 192.228,171.461 184.895,173.961 177.5,177C 175.651,178.093 173.984,179.426 172.5,181C 174.017,182.685 175.684,184.185 177.5,185.5C 175.588,188.044 172.588,190.044 168.5,191.5C 167.35,193.609 166.016,195.609 164.5,197.5C 161.473,198.361 158.806,199.861 156.5,202C 162.749,208.09 169.416,213.59 176.5,218.5C 177.833,219.833 179.167,221.167 180.5,222.5C 173.626,222.521 166.959,223.187 160.5,224.5C 159.5,224.5 158.5,224.5 157.5,224.5C 151.892,220.561 146.892,215.894 142.5,210.5C 144.82,205.86 147.153,201.193 149.5,196.5C 146.645,193.48 143.979,190.313 141.5,187C 142.833,186.333 142.833,185.667 141.5,185C 142.931,184.535 144.097,183.701 145,182.5C 145.333,182.833 145.667,183.167 146,183.5C 147.333,182.167 148.667,180.833 150,179.5C 150.333,179.833 150.667,180.167 151,180.5C 154.616,178.147 157.782,175.647 160.5,173C 158.434,171.304 156.934,169.471 156,167.5C 159.436,166.45 162.769,165.116 166,163.5C 169.667,156.167 173.333,148.833 177,141.5C 177.671,140.748 178.504,140.414 179.5,140.5 Z"/></g>
<g><path style="opacity:1" fill="#b367a3" d="M 217.5,164.5 C 217.5,166.833 217.5,169.167 217.5,171.5C 217.5,174.833 217.5,178.167 217.5,181.5C 216.406,180.418 215.073,179.752 213.5,179.5C 207.901,180.421 202.734,182.421 198,185.5C 197.586,185.043 197.086,184.709 196.5,184.5C 193.072,186.225 189.405,187.392 185.5,188C 186.634,189.016 186.301,189.683 184.5,190C 189.714,193.768 194.714,197.768 199.5,202C 194.746,206.371 189.413,209.704 183.5,212C 183.833,212.333 184.167,212.667 184.5,213C 181.156,214.06 178.49,215.893 176.5,218.5C 169.416,213.59 162.749,208.09 156.5,202C 158.806,199.861 161.473,198.361 164.5,197.5C 166.016,195.609 167.35,193.609 168.5,191.5C 172.588,190.044 175.588,188.044 177.5,185.5C 175.684,184.185 174.017,182.685 172.5,181C 173.984,179.426 175.651,178.093 177.5,177C 184.895,173.961 192.228,171.461 199.5,169.5C 202.552,170.311 205.385,170.311 208,169.5C 210.92,167.36 214.087,165.694 217.5,164.5 Z"/></g>
<g><path style="opacity:0.997" fill="#fcb19c" d="M 453.5,131.5 C 467.504,146.504 482.171,160.837 497.5,174.5C 510.46,237.867 498.627,296.2 462,349.5C 445.085,368.315 431.418,389.315 421,412.5C 412.206,433.971 407.706,456.305 407.5,479.5C 404.386,480.013 401.386,480.846 398.5,482C 377.946,481.981 357.612,483.481 337.5,486.5C 332.419,486.338 327.919,486.338 324,486.5C 323.311,485.643 322.478,484.977 321.5,484.5C 317.403,486.185 313.069,487.018 308.5,487C 269.283,488.562 230.45,489.729 192,490.5C 191.667,489.833 191.333,489.167 191,488.5C 187.73,488.41 184.396,488.41 181,488.5C 176.459,486.242 171.625,485.075 166.5,485C 167.167,484.667 167.833,484.333 168.5,484C 163.612,482.52 158.946,480.52 154.5,478C 153.809,476.933 153.309,475.766 153,474.5C 151.667,475.833 150.333,475.833 149,474.5C 148.503,477.55 147.003,478.55 144.5,477.5C 143.832,480.306 143.166,482.972 142.5,485.5C 142.5,474.5 142.5,463.5 142.5,452.5C 161.536,452.163 178.536,452.496 193.5,453.5C 193.034,455.201 193.034,456.701 193.5,458C 192.5,459 191.5,460 190.5,461C 190.833,461.333 191.167,461.667 191.5,462C 190.552,462.483 189.552,462.649 188.5,462.5C 188.5,463.5 188.5,464.5 188.5,465.5C 189.5,465.5 190.5,465.5 191.5,465.5C 191.5,466.5 191.5,467.5 191.5,468.5C 190.448,468.351 189.448,468.517 188.5,469C 189.634,470.016 189.301,470.683 187.5,471C 188.126,471.75 188.626,472.584 189,473.5C 189.333,473.167 189.667,472.833 190,472.5C 190.918,474.632 192.251,475.299 194,474.5C 195.734,475.249 197.567,475.749 199.5,476C 198.5,476.333 197.5,476.667 196.5,477C 200.342,477.956 204.175,478.79 208,479.5C 225.957,478.901 244.123,478.068 262.5,477C 276.851,475.51 291.184,473.843 305.5,472C 287.938,454.271 270.272,436.771 252.5,419.5C 250.833,417.5 249.167,415.5 247.5,413.5C 250.394,412.118 252.894,410.118 255,407.5C 266.294,393.871 277.961,380.537 290,367.5C 290.667,366.833 290.667,366.167 290,365.5C 286.387,369.113 282.721,372.779 279,376.5C 278.333,375.833 278.333,375.167 279,374.5C 301.748,349.591 323.915,324.258 345.5,298.5C 347.833,298.5 350.167,298.5 352.5,298.5C 360.684,298.826 368.684,298.492 376.5,297.5C 382.037,296.913 387.37,295.913 392.5,294.5C 399.168,293.255 405.501,291.255 411.5,288.5C 430.443,281.949 447.276,271.949 462,258.5C 462.743,256.559 462.576,254.726 461.5,253C 448.363,242.598 433.697,235.098 417.5,230.5C 411.5,228.5 405.5,226.5 399.5,224.5C 404.207,219.795 408.54,214.795 412.5,209.5C 421.05,200.611 428.05,190.611 433.5,179.5C 442.89,164.709 449.557,148.709 453.5,131.5 Z"/></g>
<g><path style="opacity:0.992" fill="#fed5c4" d="M 116.5,172.5 C 119.773,178.436 123.439,184.103 127.5,189.5C 131.343,197.341 136.343,204.341 142.5,210.5C 146.892,215.894 151.892,220.561 157.5,224.5C 150.297,225.718 143.297,227.718 136.5,230.5C 121.251,235.291 107.251,242.458 94.5,252C 93.1007,253.062 92.1007,254.395 91.5,256C 93.6242,258.962 95.9575,261.795 98.5,264.5C 98.631,265.239 98.4643,265.906 98,266.5C 69.9651,294.368 42.1318,322.368 14.5,350.5C 6.08858,338.907 5.92191,327.24 14,315.5C 27.1584,300.01 39.1584,283.676 50,266.5C 53.5248,256.718 54.3581,246.718 52.5,236.5C 53.2389,236.631 53.9056,236.464 54.5,236C 75.7532,215.249 96.4199,194.082 116.5,172.5 Z"/></g>
<g><path style="opacity:1" fill="#98579a" d="M 335.5,148.5 C 336.272,152.452 336.605,156.452 336.5,160.5C 337.301,162.042 337.634,163.708 337.5,165.5C 336.305,170.843 337.971,174.843 342.5,177.5C 344.607,176.363 346.773,175.363 349,174.5C 358.331,177.748 367.497,181.415 376.5,185.5C 368.058,191.374 360.058,197.707 352.5,204.5C 353.406,206.747 354.739,208.747 356.5,210.5C 361.935,213.913 367.268,217.413 372.5,221C 370.618,221.198 368.952,221.698 367.5,222.5C 366.833,222.5 366.167,222.5 365.5,222.5C 364.833,222.5 364.167,222.5 363.5,222.5C 361.167,222.5 358.833,222.5 356.5,222.5C 353.583,218.348 350.416,214.348 347,210.5C 346.583,207.716 347.75,205.716 350.5,204.5C 346.737,201.917 343.07,199.084 339.5,196C 338.552,195.517 337.552,195.351 336.5,195.5C 336.5,189.167 336.5,182.833 336.5,176.5C 332.734,176.582 329.734,178.082 327.5,181C 323.889,182.276 320.389,183.776 317,185.5C 316.617,184.944 316.117,184.611 315.5,184.5C 315.943,175.392 315.443,166.392 314,157.5C 312,158.167 310.667,159.5 310,161.5C 307.909,160.5 306.243,161.167 305,163.5C 304.586,163.043 304.086,162.709 303.5,162.5C 301.52,163.484 299.853,164.817 298.5,166.5C 297.914,166.291 297.414,165.957 297,165.5C 293.042,167.298 289.209,169.298 285.5,171.5C 284.914,171.291 284.414,170.957 284,170.5C 281.911,171.991 279.911,173.658 278,175.5C 277.849,182.896 277.182,190.229 276,197.5C 265.995,206.672 256.162,216.006 246.5,225.5C 244.053,218.458 242.386,211.125 241.5,203.5C 253.024,192.478 264.524,181.144 276,169.5C 276.791,166.041 277.791,162.707 279,159.5C 280.566,160.061 281.899,159.394 283,157.5C 284,157.833 285,158.167 286,158.5C 292.5,155.333 299,152.167 305.5,149C 308.28,147.188 310.78,145.021 313,142.5C 313.958,147.123 314.625,151.79 315,156.5C 315.388,157.428 316.055,158.095 317,158.5C 318.15,157.576 319.15,157.576 320,158.5C 325.316,155.342 330.482,152.009 335.5,148.5 Z"/></g>
<g><path style="opacity:1" fill="#b065a2" d="M 337.5,165.5 C 341.318,166.543 344.984,168.043 348.5,170C 351.429,170.777 354.263,170.61 357,169.5C 359.737,170.56 362.57,171.394 365.5,172C 367.306,172.81 368.806,173.976 370,175.5C 374.727,176.376 379.227,177.876 383.5,180C 381.123,181.976 379.123,184.143 377.5,186.5C 377.818,187.647 378.484,188.481 379.5,189C 379.167,189.333 378.833,189.667 378.5,190C 385.222,193.686 391.555,197.853 397.5,202.5C 390.363,209.882 382.696,216.549 374.5,222.5C 372.167,222.5 369.833,222.5 367.5,222.5C 368.952,221.698 370.618,221.198 372.5,221C 367.268,217.413 361.935,213.913 356.5,210.5C 354.739,208.747 353.406,206.747 352.5,204.5C 360.058,197.707 368.058,191.374 376.5,185.5C 367.497,181.415 358.331,177.748 349,174.5C 346.773,175.363 344.607,176.363 342.5,177.5C 337.971,174.843 336.305,170.843 337.5,165.5 Z"/></g>
<g><path style="opacity:1" fill="#9b5998" d="M 217.5,181.5 C 217.5,181.833 217.5,182.167 217.5,182.5C 217.845,187.878 218.512,193.211 219.5,198.5C 217.061,199.053 214.727,199.053 212.5,198.5C 209.431,199.985 206.764,201.985 204.5,204.5C 206.316,205.815 207.983,207.315 209.5,209C 205.82,212.853 202.486,217.019 199.5,221.5C 198.675,222.386 197.675,222.719 196.5,222.5C 194.5,222.5 192.5,222.5 190.5,222.5C 190.167,222.5 189.833,222.5 189.5,222.5C 186.5,222.5 183.5,222.5 180.5,222.5C 179.167,221.167 177.833,219.833 176.5,218.5C 178.49,215.893 181.156,214.06 184.5,213C 184.167,212.667 183.833,212.333 183.5,212C 189.413,209.704 194.746,206.371 199.5,202C 194.714,197.768 189.714,193.768 184.5,190C 186.301,189.683 186.634,189.016 185.5,188C 189.405,187.392 193.072,186.225 196.5,184.5C 197.086,184.709 197.586,185.043 198,185.5C 202.734,182.421 207.901,180.421 213.5,179.5C 215.073,179.752 216.406,180.418 217.5,181.5 Z"/></g>
<g><path style="opacity:1" fill="#7b4693" d="M 336.5,195.5 C 333.869,207.397 330.203,219.064 325.5,230.5C 322.382,231.559 319.382,232.892 316.5,234.5C 315.391,234.557 314.391,234.89 313.5,235.5C 310.91,235.082 308.577,234.082 306.5,232.5C 310.421,221.484 312.754,210.151 313.5,198.5C 314.477,195.713 314.81,192.713 314.5,189.5C 315.451,188.081 315.784,186.415 315.5,184.5C 316.117,184.611 316.617,184.944 317,185.5C 320.389,183.776 323.889,182.276 327.5,181C 329.734,178.082 332.734,176.582 336.5,176.5C 336.5,182.833 336.5,189.167 336.5,195.5 Z"/></g>
<g><path style="opacity:1" fill="#cd77ae" d="M 374.5,140.5 C 375.822,140.33 376.989,140.663 378,141.5C 381.667,148.833 385.333,156.167 389,163.5C 392.401,165.191 395.901,166.691 399.5,168C 398.333,169.833 396.833,171.333 395,172.5C 394.333,173.167 394.333,173.833 395,174.5C 400.999,179.162 407.499,182.996 414.5,186C 411.145,189.221 408.145,192.721 405.5,196.5C 407.608,201.054 409.941,205.388 412.5,209.5C 408.54,214.795 404.207,219.795 399.5,224.5C 397.167,224.5 394.833,224.5 392.5,224.5C 386.699,223.318 380.699,222.652 374.5,222.5C 382.696,216.549 390.363,209.882 397.5,202.5C 391.555,197.853 385.222,193.686 378.5,190C 378.833,189.667 379.167,189.333 379.5,189C 378.484,188.481 377.818,187.647 377.5,186.5C 379.123,184.143 381.123,181.976 383.5,180C 379.227,177.876 374.727,176.376 370,175.5C 368.806,173.976 367.306,172.81 365.5,172C 362.57,171.394 359.737,170.56 357,169.5C 354.263,170.61 351.429,170.777 348.5,170C 344.984,168.043 341.318,166.543 337.5,165.5C 337.634,163.708 337.301,162.042 336.5,160.5C 348.25,152.289 360.917,145.623 374.5,140.5 Z"/></g>
<g><path style="opacity:1" fill="#7b4687" d="M 219.5,198.5 C 219.833,200.5 220.167,202.5 220.5,204.5C 223.102,213.306 226.102,221.972 229.5,230.5C 227.254,229.545 224.921,228.878 222.5,228.5C 219.238,227.248 215.905,226.248 212.5,225.5C 208.86,224.727 205.193,224.06 201.5,223.5C 199.585,223.784 197.919,223.451 196.5,222.5C 197.675,222.719 198.675,222.386 199.5,221.5C 202.486,217.019 205.82,212.853 209.5,209C 207.983,207.315 206.316,205.815 204.5,204.5C 206.764,201.985 209.431,199.985 212.5,198.5C 214.727,199.053 217.061,199.053 219.5,198.5 Z"/></g>
<g><path style="opacity:1" fill="#7b4687" d="M 336.5,195.5 C 337.552,195.351 338.552,195.517 339.5,196C 343.07,199.084 346.737,201.917 350.5,204.5C 347.75,205.716 346.583,207.716 347,210.5C 350.416,214.348 353.583,218.348 356.5,222.5C 352.017,223.228 347.684,224.228 343.5,225.5C 340.402,225.756 337.402,226.422 334.5,227.5C 332.421,227.971 330.421,228.637 328.5,229.5C 327.391,229.557 326.391,229.89 325.5,230.5C 330.203,219.064 333.869,207.397 336.5,195.5 Z"/></g>
<g><path style="opacity:1" fill="#673a7f" d="M 313.5,198.5 C 312.754,210.151 310.421,221.484 306.5,232.5C 308.577,234.082 310.91,235.082 313.5,235.5C 300.107,242.542 288.107,251.542 277.5,262.5C 277.333,246.83 277.5,231.163 278,215.5C 281,213.833 284,212.167 287,210.5C 288.566,211.061 289.899,210.394 291,208.5C 291.308,209.308 291.808,209.975 292.5,210.5C 294.817,208.684 296.984,206.684 299,204.5C 299.308,205.308 299.808,205.975 300.5,206.5C 305.118,204.974 309.451,202.307 313.5,198.5 Z"/></g>
<g><path style="opacity:1" fill="#79458c" d="M 314.5,189.5 C 314.81,192.713 314.477,195.713 313.5,198.5C 309.451,202.307 305.118,204.974 300.5,206.5C 299.808,205.975 299.308,205.308 299,204.5C 296.984,206.684 294.817,208.684 292.5,210.5C 291.808,209.975 291.308,209.308 291,208.5C 289.899,210.394 288.566,211.061 287,210.5C 284,212.167 281,213.833 278,215.5C 277.5,231.163 277.333,246.83 277.5,262.5C 269.412,254.742 260.745,247.742 251.5,241.5C 258.773,232.393 266.94,224.059 276,216.5C 277.163,209.897 277.83,203.23 278,196.5C 278.5,196 279,195.5 279.5,195C 282.458,194.771 284.958,193.604 287,191.5C 287.333,191.833 287.667,192.167 288,192.5C 290.571,190.647 293.238,188.981 296,187.5C 296.333,187.833 296.667,188.167 297,188.5C 299.405,185.643 302.238,184.476 305.5,185C 306.667,183.833 307.833,182.667 309,181.5C 310.779,182.479 312.445,182.146 314,180.5C 314.498,183.482 314.665,186.482 314.5,189.5 Z"/></g>
<g><path style="opacity:1" fill="#874d92" d="M 315.5,184.5 C 315.784,186.415 315.451,188.081 314.5,189.5C 314.665,186.482 314.498,183.482 314,180.5C 312.445,182.146 310.779,182.479 309,181.5C 307.833,182.667 306.667,183.833 305.5,185C 302.238,184.476 299.405,185.643 297,188.5C 296.667,188.167 296.333,187.833 296,187.5C 293.238,188.981 290.571,190.647 288,192.5C 287.667,192.167 287.333,191.833 287,191.5C 284.958,193.604 282.458,194.771 279.5,195C 279,195.5 278.5,196 278,196.5C 277.83,203.23 277.163,209.897 276,216.5C 266.94,224.059 258.773,232.393 251.5,241.5C 250.833,241.5 250.5,241.167 250.5,240.5C 249.013,235.555 247.68,230.555 246.5,225.5C 256.162,216.006 265.995,206.672 276,197.5C 277.182,190.229 277.849,182.896 278,175.5C 279.911,173.658 281.911,171.991 284,170.5C 284.414,170.957 284.914,171.291 285.5,171.5C 289.209,169.298 293.042,167.298 297,165.5C 297.414,165.957 297.914,166.291 298.5,166.5C 299.853,164.817 301.52,163.484 303.5,162.5C 304.086,162.709 304.586,163.043 305,163.5C 306.243,161.167 307.909,160.5 310,161.5C 310.667,159.5 312,158.167 314,157.5C 315.443,166.392 315.943,175.392 315.5,184.5 Z"/></g>
<g><path style="opacity:1" fill="#6cc139" d="M 180.5,222.5 C 183.5,222.5 186.5,222.5 189.5,222.5C 188.234,228.939 185.067,234.273 180,238.5C 175.738,245.368 171.238,252.035 166.5,258.5C 162.297,258.924 158.297,258.424 154.5,257C 156.316,255.685 157.983,254.185 159.5,252.5C 162.093,247.163 165.093,242.663 168.5,239C 167.387,234.267 166.72,229.434 166.5,224.5C 164.5,224.5 162.5,224.5 160.5,224.5C 166.959,223.187 173.626,222.521 180.5,222.5 Z"/></g>
<g><path style="opacity:1" fill="#7fcd35" d="M 157.5,224.5 C 158.5,224.5 159.5,224.5 160.5,224.5C 162.5,224.5 164.5,224.5 166.5,224.5C 166.72,229.434 167.387,234.267 168.5,239C 165.093,242.663 162.093,247.163 159.5,252.5C 157.983,254.185 156.316,255.685 154.5,257C 158.297,258.424 162.297,258.924 166.5,258.5C 167.922,258.709 169.255,259.209 170.5,260C 169.128,262.533 168.128,265.2 167.5,268C 167.833,268.333 168.167,268.667 168.5,269C 166.621,272.802 164.288,276.302 161.5,279.5C 165.144,281.744 169.144,282.744 173.5,282.5C 173.922,286.879 174.589,291.212 175.5,295.5C 174.675,296.386 173.675,296.719 172.5,296.5C 162.268,295.528 152.601,292.861 143.5,288.5C 144.748,287.666 145.415,286.333 145.5,284.5C 143.355,267.343 141.189,250.01 139,232.5C 138.583,231.244 137.75,230.577 136.5,230.5C 143.297,227.718 150.297,225.718 157.5,224.5 Z"/></g>
<g><path style="opacity:1" fill="#83d134" d="M 392.5,224.5 C 394.833,224.5 397.167,224.5 399.5,224.5C 405.5,226.5 411.5,228.5 417.5,230.5C 415.504,244.137 413.504,257.804 411.5,271.5C 413.203,272.89 413.87,274.39 413.5,276C 412.667,276.833 411.833,277.667 411,278.5C 410.744,281.557 410.244,284.557 409.5,287.5C 409.957,288.298 410.624,288.631 411.5,288.5C 405.501,291.255 399.168,293.255 392.5,294.5C 391.414,294.38 390.747,293.713 390.5,292.5C 391.163,289.194 391.663,285.861 392,282.5C 396.351,280.844 400.851,279.344 405.5,278C 402.851,272.01 400.185,266.01 397.5,260C 398.205,258.578 398.539,257.245 398.5,256C 395.833,253 393.167,250 390.5,247C 390.966,245.701 390.966,244.201 390.5,242.5C 389.448,242.649 388.448,242.483 387.5,242C 388.175,236.413 388.842,230.579 389.5,224.5C 390.5,224.5 391.5,224.5 392.5,224.5 Z"/></g>
<g><path style="opacity:1" fill="#50af3d" d="M 363.5,222.5 C 364.167,222.5 364.833,222.5 365.5,222.5C 365.389,223.117 365.056,223.617 364.5,224C 367.575,230.664 371.741,236.497 377,241.5C 379.876,247.423 383.376,252.923 387.5,258C 383.181,258.76 378.848,259.427 374.5,260C 378.009,267.206 380.676,274.706 382.5,282.5C 378.846,282.942 375.179,283.276 371.5,283.5C 372.091,282.849 372.757,282.182 373.5,281.5C 371.428,274.757 368.761,267.924 365.5,261C 366.737,260.768 367.737,260.268 368.5,259.5C 369.376,259.631 370.043,259.298 370.5,258.5C 367.77,254.159 364.77,249.992 361.5,246C 359.029,238.674 357.363,231.174 356.5,223.5C 359.059,223.802 361.393,223.468 363.5,222.5 Z"/></g>
<g><path style="opacity:1" fill="#0e7946" d="M 222.5,228.5 C 224.921,228.878 227.254,229.545 229.5,230.5C 233.147,231.657 236.48,233.323 239.5,235.5C 240.809,238.186 241.809,241.02 242.5,244C 238.969,247.933 237.969,252.099 239.5,256.5C 239.278,258.055 238.611,259.389 237.5,260.5C 240.08,261.549 242.746,262.216 245.5,262.5C 245.82,265.952 245.82,269.285 245.5,272.5C 247.385,273.197 247.718,274.197 246.5,275.5C 248.045,276.452 249.712,276.785 251.5,276.5C 251.595,278.786 252.262,280.786 253.5,282.5C 249.864,285.323 245.864,287.656 241.5,289.5C 241.071,286.214 241.071,283.047 241.5,280C 236.726,279.346 232.06,279.846 227.5,281.5C 226.09,281.132 225.09,280.299 224.5,279C 224.435,276.03 225.102,273.03 226.5,270C 226.37,267.534 226.037,264.7 225.5,261.5C 221.452,261.605 217.452,261.272 213.5,260.5C 213.331,258.088 213.997,255.921 215.5,254C 213.998,251.994 214.331,250.328 216.5,249C 215.542,247.853 215.875,246.853 217.5,246C 216.506,242.159 218.173,240.159 222.5,240C 221.951,236.585 221.951,232.752 222.5,228.5 Z"/></g>
<g><path style="opacity:1" fill="#97de31" d="M 136.5,230.5 C 137.75,230.577 138.583,231.244 139,232.5C 141.189,250.01 143.355,267.343 145.5,284.5C 145.415,286.333 144.748,287.666 143.5,288.5C 127.632,282.615 112.965,274.615 99.5,264.5C 99.1667,264.5 98.8333,264.5 98.5,264.5C 95.9575,261.795 93.6242,258.962 91.5,256C 92.1007,254.395 93.1007,253.062 94.5,252C 107.251,242.458 121.251,235.291 136.5,230.5 Z"/></g>
<g><path style="opacity:1" fill="#98de31" d="M 417.5,230.5 C 433.697,235.098 448.363,242.598 461.5,253C 462.576,254.726 462.743,256.559 462,258.5C 447.276,271.949 430.443,281.949 411.5,288.5C 410.624,288.631 409.957,288.298 409.5,287.5C 410.244,284.557 410.744,281.557 411,278.5C 411.833,277.667 412.667,276.833 413.5,276C 413.87,274.39 413.203,272.89 411.5,271.5C 413.504,257.804 415.504,244.137 417.5,230.5 Z"/></g>
<g><path style="opacity:1" fill="#1a8746" d="M 212.5,225.5 C 215.905,226.248 219.238,227.248 222.5,228.5C 221.951,232.752 221.951,236.585 222.5,240C 218.173,240.159 216.506,242.159 217.5,246C 215.875,246.853 215.542,247.853 216.5,249C 214.331,250.328 213.998,251.994 215.5,254C 213.997,255.921 213.331,258.088 213.5,260.5C 210.167,260.5 206.833,260.5 203.5,260.5C 204.752,255.994 206.086,251.494 207.5,247C 207.355,245.774 207.022,244.607 206.5,243.5C 209.008,240.743 211.341,238.576 213.5,237C 212.822,234.658 213.155,232.324 214.5,230C 213.418,228.67 212.751,227.17 212.5,225.5 Z"/></g>
<g><path style="opacity:1" fill="#066a42" d="M 316.5,234.5 C 315.222,236.823 314.222,239.323 313.5,242C 314.424,243.15 314.424,244.15 313.5,245C 316.329,246.216 316.996,248.049 315.5,250.5C 317.973,252.098 317.973,253.598 315.5,255C 316.167,256 316.833,257 317.5,258C 316.663,259.011 316.33,260.178 316.5,261.5C 314.5,261.833 312.5,262.167 310.5,262.5C 310.043,266.925 309.709,271.591 309.5,276.5C 308.448,276.351 307.448,276.517 306.5,277C 305.794,279.714 304.461,281.881 302.5,283.5C 293.352,278.367 285.019,272.033 277.5,264.5C 271.949,269.753 266.282,274.753 260.5,279.5C 258.313,280.758 255.98,281.758 253.5,282.5C 252.262,280.786 251.595,278.786 251.5,276.5C 249.712,276.785 248.045,276.452 246.5,275.5C 247.718,274.197 247.385,273.197 245.5,272.5C 245.82,269.285 245.82,265.952 245.5,262.5C 242.746,262.216 240.08,261.549 237.5,260.5C 238.611,259.389 239.278,258.055 239.5,256.5C 237.969,252.099 238.969,247.933 242.5,244C 241.809,241.02 240.809,238.186 239.5,235.5C 243.29,236.895 246.957,238.562 250.5,240.5C 250.5,241.167 250.833,241.5 251.5,241.5C 260.745,247.742 269.412,254.742 277.5,262.5C 288.107,251.542 300.107,242.542 313.5,235.5C 314.391,234.89 315.391,234.557 316.5,234.5 Z"/></g>
<g><path style="opacity:1" fill="#097545" d="M 328.5,229.5 C 327.859,230.482 327.193,231.482 326.5,232.5C 327.833,233.833 327.833,235.167 326.5,236.5C 328.55,241.504 330.884,247.004 333.5,253C 332.553,255.188 332.553,257.522 333.5,260C 330.247,261.036 326.914,261.703 323.5,262C 323.379,268.122 323.379,274.289 323.5,280.5C 320.873,279.908 318.206,279.575 315.5,279.5C 314.908,282.127 314.575,284.794 314.5,287.5C 313.167,287.5 311.833,287.5 310.5,287.5C 307.515,286.674 304.849,285.341 302.5,283.5C 304.461,281.881 305.794,279.714 306.5,277C 307.448,276.517 308.448,276.351 309.5,276.5C 309.709,271.591 310.043,266.925 310.5,262.5C 312.5,262.167 314.5,261.833 316.5,261.5C 316.33,260.178 316.663,259.011 317.5,258C 316.833,257 316.167,256 315.5,255C 317.973,253.598 317.973,252.098 315.5,250.5C 316.996,248.049 316.329,246.216 313.5,245C 314.424,244.15 314.424,243.15 313.5,242C 314.222,239.323 315.222,236.823 316.5,234.5C 319.382,232.892 322.382,231.559 325.5,230.5C 326.391,229.89 327.391,229.557 328.5,229.5 Z"/></g>
<g><path style="opacity:1" fill="#2a9444" d="M 201.5,223.5 C 205.193,224.06 208.86,224.727 212.5,225.5C 212.751,227.17 213.418,228.67 214.5,230C 213.155,232.324 212.822,234.658 213.5,237C 211.341,238.576 209.008,240.743 206.5,243.5C 207.022,244.607 207.355,245.774 207.5,247C 206.086,251.494 204.752,255.994 203.5,260.5C 199.692,260.837 196.026,260.337 192.5,259C 195.041,254.725 197.208,250.225 199,245.5C 199.743,243.559 199.576,241.726 198.5,240C 200.734,239.031 202.734,237.698 204.5,236C 204.256,231.858 203.256,227.691 201.5,223.5 Z"/></g>
<g><path style="opacity:1" fill="#58b43c" d="M 189.5,222.5 C 189.833,222.5 190.167,222.5 190.5,222.5C 191.919,223.451 193.585,223.784 195.5,223.5C 196.5,228.207 196.167,232.874 194.5,237.5C 192.712,237.215 191.045,237.548 189.5,238.5C 185.78,245.414 181.446,251.914 176.5,258C 180.333,259.318 184.333,260.151 188.5,260.5C 186.35,268.28 184.016,275.947 181.5,283.5C 178.833,283.167 176.167,282.833 173.5,282.5C 169.144,282.744 165.144,281.744 161.5,279.5C 164.288,276.302 166.621,272.802 168.5,269C 168.167,268.667 167.833,268.333 167.5,268C 168.128,265.2 169.128,262.533 170.5,260C 169.255,259.209 167.922,258.709 166.5,258.5C 171.238,252.035 175.738,245.368 180,238.5C 185.067,234.273 188.234,228.939 189.5,222.5 Z"/></g>
<g><path style="opacity:1" fill="#70c438" d="M 365.5,222.5 C 366.167,222.5 366.833,222.5 367.5,222.5C 369.833,222.5 372.167,222.5 374.5,222.5C 380.699,222.652 386.699,223.318 392.5,224.5C 391.5,224.5 390.5,224.5 389.5,224.5C 388.842,230.579 388.175,236.413 387.5,242C 388.448,242.483 389.448,242.649 390.5,242.5C 390.966,244.201 390.966,245.701 390.5,247C 393.167,250 395.833,253 398.5,256C 398.539,257.245 398.205,258.578 397.5,260C 400.185,266.01 402.851,272.01 405.5,278C 400.851,279.344 396.351,280.844 392,282.5C 391.663,285.861 391.163,289.194 390.5,292.5C 390.747,293.713 391.414,294.38 392.5,294.5C 387.37,295.913 382.037,296.913 376.5,297.5C 374.5,297.5 372.5,297.5 370.5,297.5C 370.5,292.833 370.5,288.167 370.5,283.5C 370.833,283.5 371.167,283.5 371.5,283.5C 375.179,283.276 378.846,282.942 382.5,282.5C 380.676,274.706 378.009,267.206 374.5,260C 378.848,259.427 383.181,258.76 387.5,258C 383.376,252.923 379.876,247.423 377,241.5C 371.741,236.497 367.575,230.664 364.5,224C 365.056,223.617 365.389,223.117 365.5,222.5 Z"/></g>
<g><path style="opacity:1" fill="#3da141" d="M 190.5,222.5 C 192.5,222.5 194.5,222.5 196.5,222.5C 197.919,223.451 199.585,223.784 201.5,223.5C 203.256,227.691 204.256,231.858 204.5,236C 202.734,237.698 200.734,239.031 198.5,240C 199.576,241.726 199.743,243.559 199,245.5C 197.208,250.225 195.041,254.725 192.5,259C 196.026,260.337 199.692,260.837 203.5,260.5C 206.833,260.5 210.167,260.5 213.5,260.5C 213.918,261.222 214.584,261.722 215.5,262C 215.161,268.11 214.494,274.443 213.5,281C 216.691,282.087 220.025,282.92 223.5,283.5C 224.352,287.131 225.019,290.798 225.5,294.5C 219.357,296.581 213.024,297.914 206.5,298.5C 207.209,297.596 208.209,297.263 209.5,297.5C 209.142,293.491 208.642,289.491 208,285.5C 207.5,285 207,284.5 206.5,284C 198.173,283.5 189.84,283.334 181.5,283.5C 184.016,275.947 186.35,268.28 188.5,260.5C 184.333,260.151 180.333,259.318 176.5,258C 181.446,251.914 185.78,245.414 189.5,238.5C 191.045,237.548 192.712,237.215 194.5,237.5C 196.167,232.874 196.5,228.207 195.5,223.5C 193.585,223.784 191.919,223.451 190.5,222.5 Z"/></g>
<g><path style="opacity:1" fill="#45a73f" d="M 368.5,259.5 C 367.737,260.268 366.737,260.768 365.5,261C 368.761,267.924 371.428,274.757 373.5,281.5C 372.757,282.182 372.091,282.849 371.5,283.5C 371.167,283.5 370.833,283.5 370.5,283.5C 363.804,283.391 357.137,283.724 350.5,284.5C 350.261,288.842 349.927,293.176 349.5,297.5C 350.791,297.263 351.791,297.596 352.5,298.5C 350.167,298.5 347.833,298.5 345.5,298.5C 340.983,297.81 336.65,296.81 332.5,295.5C 331.609,294.739 330.942,293.739 330.5,292.5C 331.031,289.265 331.698,286.098 332.5,283C 337.488,282.913 342.488,283.08 347.5,283.5C 350.364,283.936 352.697,283.103 354.5,281C 353.11,274.566 352.443,267.733 352.5,260.5C 357.845,260.313 363.178,259.98 368.5,259.5 Z"/></g>
<g><path style="opacity:1" fill="#1e8945" d="M 213.5,260.5 C 217.452,261.272 221.452,261.605 225.5,261.5C 226.037,264.7 226.37,267.534 226.5,270C 225.102,273.03 224.435,276.03 224.5,279C 225.09,280.299 226.09,281.132 227.5,281.5C 232.06,279.846 236.726,279.346 241.5,280C 241.071,283.047 241.071,286.214 241.5,289.5C 236.436,291.965 231.103,293.632 225.5,294.5C 225.019,290.798 224.352,287.131 223.5,283.5C 220.025,282.92 216.691,282.087 213.5,281C 214.494,274.443 215.161,268.11 215.5,262C 214.584,261.722 213.918,261.222 213.5,260.5 Z"/></g>
<g><path style="opacity:1" fill="#158146" d="M 334.5,227.5 C 334.389,228.117 334.056,228.617 333.5,229C 334.368,232.767 335.035,236.601 335.5,240.5C 338.276,240.089 338.943,240.922 337.5,243C 339.229,248.098 340.562,253.598 341.5,259.5C 338.313,260.865 334.98,261.699 331.5,262C 331.955,267.823 332.621,273.823 333.5,280C 330.722,281.392 327.722,281.892 324.5,281.5C 324.758,285.372 324.091,289.039 322.5,292.5C 318.111,291.597 314.111,289.931 310.5,287.5C 311.833,287.5 313.167,287.5 314.5,287.5C 314.575,284.794 314.908,282.127 315.5,279.5C 318.206,279.575 320.873,279.908 323.5,280.5C 323.379,274.289 323.379,268.122 323.5,262C 326.914,261.703 330.247,261.036 333.5,260C 332.553,257.522 332.553,255.188 333.5,253C 330.884,247.004 328.55,241.504 326.5,236.5C 327.833,235.167 327.833,233.833 326.5,232.5C 327.193,231.482 327.859,230.482 328.5,229.5C 330.421,228.637 332.421,227.971 334.5,227.5 Z"/></g>
<g><path style="opacity:1" fill="#218c45" d="M 343.5,225.5 C 342.375,227.129 341.041,228.629 339.5,230C 340.672,230.419 341.672,231.085 342.5,232C 341.864,234.394 341.864,236.894 342.5,239.5C 344.981,239.323 346.814,240.323 348,242.5C 348.375,245 349.208,247.333 350.5,249.5C 350.291,250.086 349.957,250.586 349.5,251C 351.422,252.46 352.089,254.127 351.5,256C 352.167,256.333 352.833,256.667 353.5,257C 352.167,257.667 352.167,258.333 353.5,259C 350.625,260.302 347.625,261.135 344.5,261.5C 344.723,264.784 345.39,267.951 346.5,271C 345.412,274.61 346.079,278.276 348.5,282C 347.944,282.383 347.611,282.883 347.5,283.5C 342.488,283.08 337.488,282.913 332.5,283C 331.698,286.098 331.031,289.265 330.5,292.5C 330.942,293.739 331.609,294.739 332.5,295.5C 328.838,295.277 325.505,294.277 322.5,292.5C 324.091,289.039 324.758,285.372 324.5,281.5C 327.722,281.892 330.722,281.392 333.5,280C 332.621,273.823 331.955,267.823 331.5,262C 334.98,261.699 338.313,260.865 341.5,259.5C 340.562,253.598 339.229,248.098 337.5,243C 338.943,240.922 338.276,240.089 335.5,240.5C 335.035,236.601 334.368,232.767 333.5,229C 334.056,228.617 334.389,228.117 334.5,227.5C 337.402,226.422 340.402,225.756 343.5,225.5 Z"/></g>
<g><path style="opacity:0.997" fill="#ffd0be" d="M 98.5,264.5 C 98.8333,264.5 99.1667,264.5 99.5,264.5C 110.78,277.448 122.78,289.781 135.5,301.5C 117.754,320.748 99.4204,339.582 80.5,358C 77.3054,358.181 74.3054,358.681 71.5,359.5C 56.8295,359.667 42.1629,359.5 27.5,359C 22.1999,357.513 17.8665,354.68 14.5,350.5C 42.1318,322.368 69.9651,294.368 98,266.5C 98.4643,265.906 98.631,265.239 98.5,264.5 Z"/></g>
<g><path style="opacity:1" fill="#329a43" d="M 356.5,222.5 C 358.833,222.5 361.167,222.5 363.5,222.5C 361.393,223.468 359.059,223.802 356.5,223.5C 357.363,231.174 359.029,238.674 361.5,246C 364.77,249.992 367.77,254.159 370.5,258.5C 370.043,259.298 369.376,259.631 368.5,259.5C 363.178,259.98 357.845,260.313 352.5,260.5C 352.443,267.733 353.11,274.566 354.5,281C 352.697,283.103 350.364,283.936 347.5,283.5C 347.611,282.883 347.944,282.383 348.5,282C 346.079,278.276 345.412,274.61 346.5,271C 345.39,267.951 344.723,264.784 344.5,261.5C 347.625,261.135 350.625,260.302 353.5,259C 352.167,258.333 352.167,257.667 353.5,257C 352.833,256.667 352.167,256.333 351.5,256C 352.089,254.127 351.422,252.46 349.5,251C 349.957,250.586 350.291,250.086 350.5,249.5C 349.208,247.333 348.375,245 348,242.5C 346.814,240.323 344.981,239.323 342.5,239.5C 341.864,236.894 341.864,234.394 342.5,232C 341.672,231.085 340.672,230.419 339.5,230C 341.041,228.629 342.375,227.129 343.5,225.5C 347.684,224.228 352.017,223.228 356.5,222.5 Z"/></g>
<g><path style="opacity:1" fill="#60b93b" d="M 370.5,283.5 C 370.5,288.167 370.5,292.833 370.5,297.5C 372.5,297.5 374.5,297.5 376.5,297.5C 368.684,298.492 360.684,298.826 352.5,298.5C 351.791,297.596 350.791,297.263 349.5,297.5C 349.927,293.176 350.261,288.842 350.5,284.5C 357.137,283.724 363.804,283.391 370.5,283.5 Z"/></g>
<g><path style="opacity:1" fill="#f4ab96" d="M 302.5,283.5 C 304.849,285.341 307.515,286.674 310.5,287.5C 314.111,289.931 318.111,291.597 322.5,292.5C 325.505,294.277 328.838,295.277 332.5,295.5C 336.65,296.81 340.983,297.81 345.5,298.5C 323.915,324.258 301.748,349.591 279,374.5C 278.333,375.167 278.333,375.833 279,376.5C 282.721,372.779 286.387,369.113 290,365.5C 290.667,366.167 290.667,366.833 290,367.5C 277.961,380.537 266.294,393.871 255,407.5C 252.894,410.118 250.394,412.118 247.5,413.5C 236.753,403.084 226.087,392.751 215.5,382.5C 207.528,374.193 199.528,365.86 191.5,357.5C 214.96,331.916 237.96,305.916 260.5,279.5C 266.282,274.753 271.949,269.753 277.5,264.5C 285.019,272.033 293.352,278.367 302.5,283.5 Z"/></g>
<g><path style="opacity:1" fill="#e99f8a" d="M 99.5,264.5 C 112.965,274.615 127.632,282.615 143.5,288.5C 152.601,292.861 162.268,295.528 172.5,296.5C 174.292,297.309 176.292,297.809 178.5,298C 187.827,298.5 197.161,298.666 206.5,298.5C 213.024,297.914 219.357,296.581 225.5,294.5C 231.103,293.632 236.436,291.965 241.5,289.5C 245.864,287.656 249.864,285.323 253.5,282.5C 255.98,281.758 258.313,280.758 260.5,279.5C 237.96,305.916 214.96,331.916 191.5,357.5C 188.053,353.597 184.386,349.93 180.5,346.5C 165.092,331.685 150.092,316.685 135.5,301.5C 122.78,289.781 110.78,277.448 99.5,264.5 Z"/></g>
<g><path style="opacity:1" fill="#68be39" d="M 173.5,282.5 C 176.167,282.833 178.833,283.167 181.5,283.5C 189.84,283.334 198.173,283.5 206.5,284C 207,284.5 207.5,285 208,285.5C 208.642,289.491 209.142,293.491 209.5,297.5C 208.209,297.263 207.209,297.596 206.5,298.5C 197.161,298.666 187.827,298.5 178.5,298C 176.292,297.809 174.292,297.309 172.5,296.5C 173.675,296.719 174.675,296.386 175.5,295.5C 174.589,291.212 173.922,286.879 173.5,282.5 Z"/></g>
<g><path style="opacity:0.997" fill="#fec9b6" d="M 135.5,301.5 C 150.092,316.685 165.092,331.685 180.5,346.5C 149.085,379.416 117.085,411.916 84.5,444C 85.2524,444.671 85.5858,445.504 85.5,446.5C 69.747,435.648 63.247,420.648 66,401.5C 67.6721,387.455 69.5054,373.455 71.5,359.5C 74.3054,358.681 77.3054,358.181 80.5,358C 99.4204,339.582 117.754,320.748 135.5,301.5 Z"/></g>
<g><path style="opacity:0.996" fill="#fec5b1" d="M 180.5,346.5 C 184.386,349.93 188.053,353.597 191.5,357.5C 199.528,365.86 207.528,374.193 215.5,382.5C 192.833,405.5 170.167,428.5 147.5,451.5C 145.585,451.216 143.919,451.549 142.5,452.5C 128.496,452.667 114.496,452.5 100.5,452C 95.0759,451.248 90.0759,449.415 85.5,446.5C 85.5858,445.504 85.2524,444.671 84.5,444C 117.085,411.916 149.085,379.416 180.5,346.5 Z"/></g>
<g><path style="opacity:1" fill="#fec0ab" d="M 215.5,382.5 C 226.087,392.751 236.753,403.084 247.5,413.5C 249.167,415.5 250.833,417.5 252.5,419.5C 242.369,430.132 232.035,440.632 221.5,451C 219.899,451.273 218.399,451.773 217,452.5C 193.908,451.506 170.742,451.173 147.5,451.5C 170.167,428.5 192.833,405.5 215.5,382.5 Z"/></g>
<g><path style="opacity:1" fill="#feb9a4" d="M 252.5,419.5 C 270.272,436.771 287.938,454.271 305.5,472C 291.184,473.843 276.851,475.51 262.5,477C 244.123,478.068 225.957,478.901 208,479.5C 204.175,478.79 200.342,477.956 196.5,477C 197.5,476.667 198.5,476.333 199.5,476C 197.567,475.749 195.734,475.249 194,474.5C 192.251,475.299 190.918,474.632 190,472.5C 189.667,472.833 189.333,473.167 189,473.5C 188.626,472.584 188.126,471.75 187.5,471C 189.301,470.683 189.634,470.016 188.5,469C 189.448,468.517 190.448,468.351 191.5,468.5C 191.5,467.5 191.5,466.5 191.5,465.5C 190.5,465.5 189.5,465.5 188.5,465.5C 188.5,464.5 188.5,463.5 188.5,462.5C 189.552,462.649 190.552,462.483 191.5,462C 191.167,461.667 190.833,461.333 190.5,461C 191.5,460 192.5,459 193.5,458C 193.034,456.701 193.034,455.201 193.5,453.5C 178.536,452.496 161.536,452.163 142.5,452.5C 143.919,451.549 145.585,451.216 147.5,451.5C 170.742,451.173 193.908,451.506 217,452.5C 218.399,451.773 219.899,451.273 221.5,451C 232.035,440.632 242.369,430.132 252.5,419.5 Z"/></g>
<g><path style="opacity:1" fill="#f3a18b" d="M 407.5,479.5 C 407.055,484.955 406.055,490.288 404.5,495.5C 401.6,494.263 398.433,493.597 395,493.5C 326.818,495.83 258.484,497.497 190,498.5C 176.616,497.05 163.45,495.383 150.5,493.5C 148.742,493.592 147.076,493.925 145.5,494.5C 143.747,491.854 142.747,488.854 142.5,485.5C 143.166,482.972 143.832,480.306 144.5,477.5C 147.003,478.55 148.503,477.55 149,474.5C 150.333,475.833 151.667,475.833 153,474.5C 153.309,475.766 153.809,476.933 154.5,478C 158.946,480.52 163.612,482.52 168.5,484C 167.833,484.333 167.167,484.667 166.5,485C 171.625,485.075 176.459,486.242 181,488.5C 184.396,488.41 187.73,488.41 191,488.5C 191.333,489.167 191.667,489.833 192,490.5C 230.45,489.729 269.283,488.562 308.5,487C 313.069,487.018 317.403,486.185 321.5,484.5C 322.478,484.977 323.311,485.643 324,486.5C 327.919,486.338 332.419,486.338 337.5,486.5C 357.612,483.481 377.946,481.981 398.5,482C 401.386,480.846 404.386,480.013 407.5,479.5 Z"/></g>
<g><path style="opacity:1" fill="#e7937d" d="M 404.5,495.5 C 402.306,500.237 398.972,503.904 394.5,506.5C 387.341,505.834 380.008,505.5 372.5,505.5C 315.669,506.703 258.835,507.703 202,508.5C 187.944,508.244 173.444,507.578 158.5,506.5C 157.537,506.97 157.537,507.637 158.5,508.5C 152.067,505.736 147.734,501.069 145.5,494.5C 147.076,493.925 148.742,493.592 150.5,493.5C 163.45,495.383 176.616,497.05 190,498.5C 258.484,497.497 326.818,495.83 395,493.5C 398.433,493.597 401.6,494.263 404.5,495.5 Z"/></g>
<g><path style="opacity:1" fill="#dd8872" d="M 394.5,506.5 C 391.81,508.729 388.81,510.396 385.5,511.5C 311.5,511.5 237.5,511.5 163.5,511.5C 161.739,510.687 160.072,509.687 158.5,508.5C 157.537,507.637 157.537,506.97 158.5,506.5C 173.444,507.578 187.944,508.244 202,508.5C 258.835,507.703 315.669,506.703 372.5,505.5C 380.008,505.5 387.341,505.834 394.5,506.5 Z"/></g>
</svg>
