<?xml version="1.0" standalone="no"?>
<!DOCTYPE svg PUBLIC "-//W3C//DTD SVG 20010904//EN"
 "http://www.w3.org/TR/2001/REC-SVG-20010904/DTD/svg10.dtd">
<svg version="1.0" xmlns="http://www.w3.org/2000/svg"
 width="512.000000pt" height="512.000000pt" viewBox="0 0 512.000000 512.000000"
 preserveAspectRatio="xMidYMid meet">

<g transform="translate(0.000000,512.000000) scale(0.100000,-0.100000)"
fill="#000000" stroke="none">
<path d="M3277 4384 c-86 -19 -159 -51 -234 -102 -32 -22 -263 -246 -513 -496
l-455 -456 -240 0 c-182 0 -255 -4 -300 -15 -247 -63 -424 -291 -425 -546 0
-71 32 -195 67 -262 19 -36 107 -133 292 -320 l265 -267 -501 -503 c-337 -337
-504 -511 -508 -530 -24 -95 67 -186 162 -162 19 4 193 171 530 508 l503 501
267 -265 c291 -288 320 -310 464 -344 289 -68 589 117 664 410 11 45 15 118
15 300 l0 240 451 450 c248 248 470 478 495 511 152 211 162 491 27 719 -50
82 -466 498 -548 548 -140 83 -328 115 -478 81z m304 -291 c53 -27 99 -67 276
-246 257 -259 268 -276 268 -432 0 -169 26 -135 -546 -710 -310 -311 -500
-509 -503 -525 -3 -14 -7 -149 -8 -300 -3 -263 -4 -277 -26 -325 -28 -60 -71
-107 -131 -143 -34 -20 -61 -26 -121 -30 -143 -8 -114 -32 -777 631 -643 643
-633 631 -633 753 0 33 7 81 16 107 22 64 91 139 156 168 51 23 63 24 328 27
151 1 286 5 300 8 16 3 213 193 526 505 275 274 502 499 505 499 2 0 31 11 64
25 52 22 72 25 151 22 78 -2 100 -7 155 -34z"/>
</g>
</svg>
