<?xml version="1.0" standalone="no"?>
<!DOCTYPE svg PUBLIC "-//W3C//DTD SVG 20010904//EN"
 "http://www.w3.org/TR/2001/REC-SVG-20010904/DTD/svg10.dtd">
<svg version="1.0" xmlns="http://www.w3.org/2000/svg"
 width="512.000000pt" height="512.000000pt" viewBox="0 0 512.000000 512.000000"
 preserveAspectRatio="xMidYMid meet">

<g transform="translate(0.000000,512.000000) scale(0.100000,-0.100000)"
fill="#000000" stroke="none">
<path d="M2955 4876 c-16 -8 -145 -129 -285 -270 l-254 -256 -121 119 c-96 95
-127 121 -157 126 -98 18 -178 -47 -178 -145 0 -23 6 -53 14 -68 8 -15 95
-107 193 -204 148 -146 184 -178 215 -183 80 -15 82 -14 426 329 178 176 330
333 338 348 8 15 14 47 14 71 0 105 -110 176 -205 133z"/>
<path d="M2405 3813 c-343 -73 -595 -384 -595 -733 0 -87 24 -205 57 -284 94
-225 310 -405 537 -448 66 -13 70 -28 8 -28 -18 0 -68 -7 -110 -15 -246 -50
-477 -167 -652 -332 l-80 -75 -92 40 c-91 39 -228 78 -298 85 -38 3 -36 5 59
35 279 91 454 387 397 673 -25 125 -76 219 -166 309 -86 87 -162 131 -276 160
-141 36 -295 18 -427 -52 -36 -19 -93 -64 -137 -108 -90 -90 -140 -183 -166
-309 -57 -286 118 -582 397 -673 35 -11 71 -23 79 -26 8 -3 -12 -9 -45 -13
-135 -19 -291 -79 -421 -164 -216 -140 -373 -362 -444 -625 -21 -78 -24 -111
-28 -406 -4 -311 -3 -322 17 -362 14 -28 35 -49 61 -62 38 -19 58 -20 585 -20
484 0 545 -2 545 -15 0 -36 41 -95 80 -115 39 -20 56 -20 1270 -20 1214 0
1231 0 1270 20 39 20 80 79 80 115 0 13 61 15 545 15 527 0 547 1 585 20 26
13 47 34 61 62 20 40 21 51 17 362 -4 285 -7 329 -25 396 -110 400 -393 685
-774 778 -46 12 -100 23 -119 25 -38 3 -36 5 59 35 279 91 454 387 397 673
-25 125 -76 219 -166 309 -86 87 -162 131 -276 160 -98 25 -190 25 -288 0
-112 -28 -190 -73 -276 -160 -90 -90 -140 -183 -166 -309 -57 -286 118 -582
397 -673 35 -11 71 -23 79 -26 8 -3 -12 -9 -45 -13 -78 -11 -180 -42 -283 -86
l-82 -35 -78 74 c-186 174 -456 306 -692 338 -140 19 -143 21 -67 37 272 56
500 272 572 542 8 31 18 99 22 151 27 425 -325 794 -754 789 -43 0 -109 -7
-148 -16z m247 -294 c87 -18 158 -58 223 -123 258 -259 118 -696 -244 -758
-141 -24 -281 22 -386 127 -178 177 -178 454 -1 630 111 111 258 155 408 124z
m-1467 -633 c100 -49 159 -147 159 -261 0 -115 -52 -203 -154 -263 -40 -24
-55 -27 -140 -27 -85 0 -100 3 -140 27 -118 70 -177 194 -150 322 39 189 247
288 425 202z m3020 0 c100 -49 159 -147 159 -261 0 -115 -52 -203 -154 -263
-40 -24 -55 -27 -140 -27 -85 0 -100 3 -140 27 -118 70 -177 194 -150 322 39
189 247 288 425 202z m-1405 -884 c198 -52 365 -146 501 -281 135 -135 226
-297 282 -501 18 -66 21 -112 25 -382 l4 -308 -1052 0 -1052 0 4 308 c4 270 7
316 25 382 56 203 147 366 282 500 155 156 372 266 586 300 93 14 308 4 395
-18z m-1559 -296 c31 -9 76 -25 101 -36 l44 -19 -38 -78 c-45 -93 -92 -230
-114 -333 -10 -50 -17 -156 -21 -318 l-5 -242 -455 0 -455 0 5 218 c5 244 13
285 78 417 72 146 189 260 344 335 55 27 132 56 170 64 85 19 263 15 346 -8z
m2977 8 c47 -9 118 -35 181 -65 92 -45 115 -62 195 -142 99 -101 145 -169 181
-274 36 -102 45 -180 45 -375 l0 -178 -454 0 -454 0 -5 243 c-6 260 -14 319
-68 483 -16 49 -47 125 -68 168 l-39 77 44 20 c43 18 129 42 184 52 58 10 186
6 258 -9z"/>
</g>
</svg>
